<svg xmlns="http://www.w3.org/2000/svg" width="28" height="19"><g fill="none" fill-rule="evenodd"><path fill="#3F9645" d="M0 0h28v19H0z"/><path fill="#FFF" fill-rule="nonzero" d="M18.67 6.3a49 49 0 0 1 .34.5 21.58 21.58 0 0 0-.2-1.2c-.03-.16-.05-.33.02-.4.08-.1.15-.13.19-.06.1.14.3.67.26.72-.03.05-.1 0-.11.05-.01.02.02.23.03.3l.1.5.08.64c.14.2.32.45.46.68.05.07.08.54 0 .58l-.42-.71v.37c0 .16-.3.5-.3.42.02-.43 0-.87-.04-1.31l-.3-.42c.03.5.06 1.42 0 1.6a.5.5 0 0 1-.24.27c-.15.1-.3.09-.43-.03a.54.54 0 0 1-.2-.17c-.05-.06-.17-.08-.21.05-.07.07-.07.44-.2.58-.06.07-.17.14-.3.03-.16-.07-.22-.17-.3-.33-.05-.09-.15-.53.08-.79.04-.13-.12.38.14.75.1.1.2.05.23 0 .13-.23.2-.58.4-.76.07-.06.13-.09.23 0 0 0 .18.3.23.31.06.06.16 0 .16 0 .07-.02.13-.3.14-.52l-.1-1.5a24.06 24.06 0 0 0-.54-.7c-.05-.06-.1-.17-.1-.22v-.36c.03-.13.07-.06.13-.01.13.1.17.15.32.32.18.21-.22-.02.05.26a.45.45 0 0 1 .03.03l-.01-.04-.04-.42c0-.07.04-.14.08-.17.04-.06.07-.04.1 0l.32.58c.02.05-.01.11-.04.1-.03 0-.03 0-.06-.03-.04 0-.03 0-.03.03a4.8 4.8 0 0 1 .04.4l.01.07zm-3.03.83v.26c.01.2.06.83.03 1.14-.05.23-.2.39-.31.39.03-.53.02-1.15-.01-1.65a9.63 9.63 0 0 0-.07-.7 22.48 22.48 0 0 0-.64-.9c-.05-.08-.14-.18-.16-.25a.69.69 0 0 1-.02-.28c.03-.14.18-.06.24-.01l.29.24.08.1a.52.52 0 0 1 .04-.29c.09-.12.09-.1.14-.02.17.24.32.42.37.69.02.15-.13-.15-.1.12.03.07.05.28.07.53l.25.39c.08.15.34.54.53.94.05.07.07.54-.02.6-.22-.45-.45-.88-.71-1.3zm-.54-1.5c-.05.02-.16-.02-.05.1l.1.14a9.92 9.92 0 0 0-.03-.15 1 1 0 0 0-.02-.08zm-7.01.14c.1-.11.13.38.22.57.07.28.16.17.18.03l.06-.28c.04-.29.2-.46.26-.46.08-.01.12 0 .15.1.04.07.05.4 0 .6 0 .17.2.35.18.03-.03-.24-.05-.45-.12-.68a2.74 2.74 0 0 1-.01-.43c.03-.08.11-.11.18-.03.09.08.1.4.13.54 0 .12.01.38.07.56.04.08.09.1.12.02.03 0-.04-.08-.08-.2-.06-.15-.1-.47-.02-.62.03-.05.1-.05.14 0 .05.1.1.13.13.26.02.08.06.12.01.45 0 .03.2.17.2.17.05.06.12.08.2.04a.59.59 0 0 0-.06-.28c-.13-.18-.22-.4-.2-.58.05-.15.18-.17.26-.1.1.06.17.2.21.33-.02.06-.08.07-.13 0 0 .03.05.11.04.15.08.17.1.35.11.53 0 .18-.15.3-.4.37-.15.04-.2-.06-.3-.13-.06-.03-.16-.02-.16.05-.05.07.04.39.03.77-.01.65-.26.58-.26.58L9.18 7.1c-.04-.1-.1-.1-.2-.1-.1-.04-.24-.1-.23-.29v-.6c0-.08-.06-.07-.09-.01-.14.13.08.83-.31.8-.33-.08-.3-.75-.27-1.13zm1.06 1.57l-1.02.5c.01-.24.49-.66.8-.66.22 0 .17.07.22.16zm1.3-2.17c.01 0 .02 0 .02.03h.01l.01.01.01.01c.09.04.22.46.29.66-.06.08-.12.03-.19.03l.15 1.15c.17-.1.24-.06.23.13.02.08.14.07.21.02.1-.3.28-.27.32-.08 0 .05.05.06.09.04l.01-.02.03-.15.01-.03c.03-.03.1-.05.19-.08a5.2 5.2 0 0 1-.06.52c-.05.17-.29.21-.42.12-.04-.05-.1-.03-.12 0-.06.07-.3.23-.47.05h-.01c-.04.04.1.39-.04.85-.28.9-2.02 1.37-2.1.28 0-.14 0-.18.02-.33.02-.19.1-.3.15-.25.02.01.04.06.05.15.01.13.03.36.08.46.23.44 1.58.34 1.62-1.04 0-.03-.02-.05-.03-.05-.02-.01-.07.03-.08.07-.2 1.53-2 1.34-1.46-.05.18-.13.1.41.18.56.12.22.34.2.61.07.46-.24.48-.55.46-.6-.03-.01-.11.08-.21.12-.12.03-.26.05-.37-.1a.8.8 0 0 1 0-.38c.03-.17.21-.35.37-.35.23 0 .25.17.38.26.08 0 .14-.08.12-.16l-.26-1.65c-.03-.14.06-.22.14-.24l.06-.03zm-.48 2.15a.24.24 0 0 0-.06.02v.01c-.02.03-.05.06-.04.1.03.03.05.04.09.04h.09c.01-.03.03-.07.01-.11a.08.08 0 0 0-.09-.06zm1.7-2.17a.4.4 0 0 1 .15.02c.07.08.1.24-.02.31-.03.02-.03.05 0 .07l.08.06s-.51.59-.62.63a1.4 1.4 0 0 1-.38 0c.03-.06.53-.4.72-.62.05-.03-.03-.1-.1-.13-.06-.09-.04-.22.05-.31a.28.28 0 0 1 .12-.03zm-.03.18c-.04 0-.05.05-.03.09.02.04.06.07.1.07.03 0 .04-.05.02-.1-.02-.03-.06-.07-.09-.06zM8.17 8.32c.04-.06.06-.1.04.03-.02.13-.03.3-.02.48 0 .1.04.22.13.05.03-.05.07-.05.1.02.04.1-.02.33-.14.39a.22.22 0 0 1-.22-.07c-.1-.14-.08-.6.1-.9zm7.38.85c.34-.13.65-.4.86-.63.06-.06.08-.18.07-.27-.09-.9-.13-1.7-.26-2.61a.86.86 0 0 1 .1-.43c.06-.13.07-.09.1-.02.1.16.28.56.23.6-.03.06-.1.04-.11.06a.34.34 0 0 0 0 .16c.14.67.2 1.38.18 2.3 0 .17-.1.37-.17.46-.22.4-.47.56-.74.59-.17 0-.3-.17-.26-.21zm3.72 0c.06-.06.25-.12.34-.18.1-.07.19-.21.28-.32a.97.97 0 0 0 .05-.23c-.02-.88-.13-1.84-.28-2.82a.7.7 0 0 1 .06-.43c.05-.13.07-.09.1-.01.1.15.38.5.33.55-.03.06-.12 0-.14.05l.03.24c.14.67.18 1.57.15 2.5a1.33 1.33 0 0 1-.13.5c-.23.34-.56.36-.83.4-.16-.01-.16-.14.04-.26zM17.96 7c-.13 0-.39-.24-.46-.38a.26.26 0 0 1 .01-.2c.05-.04.12-.07.17-.04 0 0 .06.08.05.09.06.03.1.01.1-.02l-.02-.13c.03-.14.19-.17.26-.08.04.06.06.18.07.26 0 .04-.07 0-.1 0-.04 0-.06.05-.06.1l-.02.4zm-.77 5.37c.02.02.02.07.04.1h.01a.1.1 0 0 1 .07.02c.06.05.01.19-.01.22.29.01.48.01.74.04l.3-.03c.34-.03.36.48.36.48 0 .3-.13.32-.27.35-.1.01-.13-.05-.18-.11-.06.02-.8 0-.92 0-.02.04-.06.1-.14.08h-.01c-.08-.05-.17-.29-.08-.44h-6.32c-.48 0-.85-.08-1.1-.45l1.58.04c.68 0 3.81.04 5.86.04-.13-.1-.13-.3.07-.34zm.14.74c-.05.02-.05.1 0 .14.13 0 .24.03.38.01v-.02c.03-.06.2-.06.23 0v.02h.26c.03 0 .06-.1 0-.14l-.87-.01zM12 5.46c.13-.13.13.63.25.72.05.08.1.13.16-.05.06-.25.17-.57.37-.76.04-.04.14-.08.2.04.04.08.03.44.02.67.04.14.09.16.15.2.07.04.16.07.25-.03l.11-.16c.03-.25 0-.47-.06-.6-.09-.22.02-.32.05-.4.1-.17.13-.07.16.04.11.17.08.53.1.79.05.34.14.37.2.38.12 0 .2-.1.2-.1.04-.25-.09-.43-.16-.56a.3.3 0 0 1-.06-.28c0-.06 0-.13.07-.2.1-.08.2-.07.27 0 .08.1.21.3.17.36 0 .07-.1.04-.13.04-.08 0 0 .17 0 .18.06.12.06.27.12.38.06.1.18.06.24.04l.1-.07c.03-.02.09-.03.08.07 0 0-.1.28-.22.34-.03 0-.05.04-.11 0-.04-.07.02-.11.02-.15 0-.02-.09-.05-.14.02l-.12.2c-.05.1-.28.13-.38.09-.13-.07-.12-.16-.18-.22-.07-.04-.12-.03-.16.01l-.2.2c-.02 0-.22.18-.47-.01-.11-.14-.15-.23-.14-.67-.02-.05-.06-.03-.1.06-.07.33-.17.63-.32.56-.22.06-.53-.56-.34-1.13zm.68 1.18h.03l.1.1c.17.28.28.66.3 1 0 .06.03.11.06.11.02-.19.49-.45.92-.5.06 0 .03-.13.04-.2-.03-.23.13-.45.36-.47.3.05.4.21.4.46-.03.47-.52.56-.8.6a.12.12 0 0 0-.04.02l.03.01h1.17l.06.04v.01l-.06.07a.94.94 0 0 0-.12.36c-.34.12-.7.17-1.07.21-.12.07-.19.15-.16.25.04.1.3.2.32.22.06.03.12.11-.01.27-.58-.03-1.02-.27-1.17-.61-.04-.03-.1 0-.13.05a1.8 1.8 0 0 1-.82.68.55.55 0 0 1-.56-.18c-.07-.08-.08-.17-.1-.2-.12.05-1.17.5-1.04.3.25-.28.7-.48 1.09-.75.02-.1.08-.4.23-.5 0 .03-.03.18-.02.25v.07c.03-.02.5-.38.54-.5.05-.06.01-.22.01-.23-.09-.23-.22-.25-.26-.36-.04-.16-.02-.33.07-.38.07-.07.17-.06.25.02.1.08.18.25.2.38-.01.05-.12-.03-.15-.01a.5.5 0 0 1 .12.24c.06.26.03.37-.03.54-.2.44-.48.57-.71.74 0 .01 0 .11.08.17.03.03.15.04.3 0 .27-.16.56-.44.7-.75.05-.23-.01-.48-.07-.7a8.93 8.93 0 0 1-.2-.53c0-.13 0-.18.06-.24l.07-.06zm1.7.42h-.02v.01l-.01.01c0 .04.02.08.07.1.05.04.1.04.12.02v-.02c.01-.03-.02-.07-.07-.1a.2.2 0 0 0-.09-.02zm-1.09.99c-.07 0-.12.06-.12.12.03.29.25.42.33.48.03.01.07.04.1.04h.01l.01-.02c.01-.02.02-.07 0-.15 0-.18.12-.22.25-.26.12-.04.06-.15-.08-.16-.16-.02-.35-.02-.49-.05zM9.56 5.47c-.1-.05-.1-.2-.1-.2 0-.03 0-.12.08-.12.02 0 .03 0 .03.02l.01.05c0 .02 0 .02.02.03h.03c.01 0 .02 0 .02-.03a.16.16 0 0 1 .01-.05l.03-.02h.03l.02.06c0 .06.05.06.06.05.02 0 0-.04 0-.06.02-.07.1-.09.13-.02v.1c.01.22-.24.25-.37.18zm3.93 1.66c-.1-.04-.1-.19-.09-.2 0-.03 0-.1.08-.1h.03l.01.06c0 .02 0 .02.02.03h.03c.01 0 .02 0 .02-.03a.16.16 0 0 1 .01-.05c.01-.01.01-.02.03-.02h.03l.02.06c0 .06.04.06.05.05.03-.01.01-.04.01-.07.02-.06.1-.08.12-.01l.01.1c.08.21-.24.25-.38.18zm2.3-.69c-.1-.04-.1-.19-.09-.2 0-.03 0-.1.08-.1h.03l.01.06c0 .02 0 .02.02.03h.03c.01 0 .03 0 .03-.03v-.05l.03-.02h.03l.02.06c0 .06.04.06.05.05.02 0 0-.04.01-.06.02-.07.1-.09.12-.02v.1c.02.22-.23.25-.37.18zm.06-1.25c.12.05.2.3.18.41-.03.15-.1.3-.14.29-.05-.02.03-.15-.02-.28-.02-.09-.19-.25-.17-.3-.02-.1.08-.15.15-.12zm1.52 3.13c-.05.21-.16.43-.25.43.03-.98-.17-1.92-.37-2.95-.03-.16 0-.36.07-.61.09-.11.07-.05.1.01.07.16.27.42.35.6.02.15-.2-.07-.16.18.04.12.23 1.52.23 1.7.01.17.06.34.03.64zm2.06-2.79c.1.06.17.36.16.45-.02.16-.08.33-.12.31-.04-.02.01-.23-.01-.3-.02-.1-.17-.27-.16-.32-.04-.11.06-.16.13-.14zm-8.16 2.24c.1.04.17.26.15.33-.02.11-.07.24-.11.23-.05-.02 0-.18-.01-.23-.01-.12-.16-.18-.16-.23-.02-.1.06-.12.13-.1zM8.47 5.1c.15.05.16.27.15.34-.03.12-.08.25-.12.23-.04-.01 0-.18-.02-.23-.02-.07-.15-.2-.14-.24-.03-.08.06-.11.12-.1zm3.05 1.08c.07-.05.12-.02.08.04a.3.3 0 0 0-.01.18c.01.03.02.05.08.04.14-.12.13-.06.13-.06s-.07.24-.18.22c-.01 0-.12.04-.2-.06-.06-.1-.02-.3.1-.36zm.9-1.17c.08-.05.08 0 .07.06-.06.09-.14.13-.11.22 0 .1.12-.03.1.06 0 .05-.02.08-.06.11-.08.04-.12.04-.16-.01-.05-.05-.03-.05-.03-.13 0-.15.12-.27.18-.3zm.71.13c.06-.15.15-.16.18-.03 0 .1 0 .18-.08.4-.05.1-.17.07-.15-.02 0 0 .03-.3.05-.35zm4.53 2.3L18.3 7c.07-.02.05.23.02.23.01.05-.61.47-.65.46-.04.02-.08-.17 0-.23zm.56 0c.11.05.16.38.15.46 0 .17-.1.31-.15.29-.05-.02 0-.2-.02-.28-.02-.1-.11-.27-.1-.32-.03-.11.06-.17.12-.15zm-3.7 1.38a.7.7 0 0 1 .18-.15c.06-.03.12.02.12.02.01.06-.04.12-.02.2.01.04.02.07.08.06.1-.08.2-.08.3-.09.07 0 .07.13.03.14-.18.04-.27.09-.4.14-.06.03-.11-.02-.11-.02s-.04-.03-.01-.12c0-.06-.03-.1-.08-.09-.04.02-.08.04-.1-.01 0-.04-.02-.05.01-.08zm4.36.18c-.04-.03-.09-.03-.1-.1 0-.04.02-.06.06-.07h.17c.07.02.08.05.07.09a.5.5 0 0 1-.05.09c-.03.05.03.06.05.06.04 0 .09-.01.12.02 0 0 .01.06-.03.09 0 0-.27.18-.38.15-.06-.02-.05-.07-.03-.1l.12-.11c.04-.06.03-.09 0-.12z"/></g></svg>