<svg xmlns="http://www.w3.org/2000/svg" width="271" height="76">
    <g fill="none" fill-rule="evenodd">
        <g fill="#FFF" stroke="#2979FF">
            <path d="M27.65 9.78S27.42 31 41.33 31 52.99 7.35 52.99 7.35L27.65 9.78z"/>
            <path fill-rule="nonzero" d="M27.09 13.81c.34 7.18 22.42-5.3 22.42-5.3s1.38 3.37 3.66 3.87c0 0 1.19-6.44-2.47-7.23 0 0-1.93-5.2-11.34-4.6 0 0-12.77 2.9-12.27 13.26zm38.04 21.51a50.48 50.48 0 0 1-16.08-2.28L49 32.9s-5.15 5.07-15.56.43a70.96 70.96 0 0 1-16.16 2.32C7.88 35.97.6 74.85.6 74.85l13.15.44 6.28-19.69v19.26h42.33l.02-19.6 6.28 19.69 13.15-.43s-6.51-37.94-16.68-39.2z"/>
        </g>
        <g fill="#FFF" stroke="#2979FF">
            <path d="M215.67 9.78S215.43 31 229.34 31 241 7.35 241 7.35l-25.33 2.43z"/>
            <path fill-rule="nonzero" d="M215.1 13.81c.34 7.18 22.42-5.3 22.42-5.3s1.39 3.37 3.66 3.87c0 0 1.2-6.44-2.47-7.23 0 0-1.93-5.2-11.34-4.6 0 0-12.77 2.9-12.27 13.26zm38.04 21.51a50.48 50.48 0 0 1-16.08-2.28l-.04-.14s-5.16 5.07-15.56.43a70.96 70.96 0 0 1-16.17 2.32c-9.4.32-16.68 39.2-16.68 39.2l13.16.44 6.27-19.69v19.26h42.33l.02-19.6 6.28 19.69 13.15-.43s-6.51-37.94-16.68-39.2z"/>
        </g>
        <path stroke="#2979FF" d="M93.64 50.36s32.94 16.94 74.35 0"/>
        <g transform="translate(112.4 10.16)">
            <rect width="3.12" height="1.41" x="29.73" y="4.23" fill="#4285F4" rx=".705"/>
            <path fill="#FFF" d="M23.44 7.22l-3.71 4.27 2.32 2.46 4.08-3.37z"/>
            <path fill="#F7FAFF" stroke="#4285F4" d="M30.48 5.31c4.86 0 6.22 2.83 6.6 4.23.094.356.141.722.14 1.09v10.5c0 5.85-6.44 6.14-6.44 6.14H7.07c-4.67 0-5.75-1.75-6.53-3.1a4.19 4.19 0 0 1-.54-2.1V10c.01-.427.09-.85.24-1.25l.15-.39C1 6.64 3.05 4.77 6.77 5.02c2.98.2 4.21-.68 4.7-1.27 3.37-3.47 10.82-3.79 14.62-.2a6.67 6.67 0 0 0 4.66 1.76"/>
            <rect width="3.39" height="1.69" x="4.2" y="8.05" fill="#4285F4" rx=".845"/>
            <g transform="translate(9.7 5.23)">
                <circle cx="9.18" cy="9.18" r="9.18" fill="#4285F4"/>
                <g transform="translate(1.7 1.7)">
                    <circle cx="7.51" cy="7.51" r="7.51" fill="#F7FAFF"/>
                    <circle cx="7.51" cy="7.51" r="5.75" fill="#4285F4"/>
                    <path fill="#FFF" d="M10.05 4.18c.31-.25.85-.1 1.33.51.48.61.52 1.2.2 1.45s-.87.07-1.35-.54c-.48-.61-.5-1.17-.18-1.42z"/>
                </g>
            </g>
        </g>
        <path stroke="#2979FF" d="M93.22 50.23l5.32-1.84m-5.51 1.53l3.36 4.95"/>
    </g>
</svg>
