<svg xmlns="http://www.w3.org/2000/svg" width="0" height="0" display="none">

  <!-- Logo -->
  <symbol id="logo" viewBox="0 0 178 44">
    <path fill-rule="evenodd" d="M74.376 32.39h5.698v5.124h-5.698V32.39zm7.614 0h5.698v5.124H81.99V32.39zm22.464-13.711l-.002-10.284h5.7v15.378H91.268c.159.515.244 1.05.252 1.59v3.5H71.149a9.2 9.2 0 0 1-2.093-5.887 9.074 9.074 0 0 1 2.824-6.707 8.745 8.745 0 0 1 6.782-2.782l.731.05v5.089l-.731-.05c-2.975 0-4.463 1.467-4.463 4.4.01.266.034.532.076.795h11.526a8.869 8.869 0 0 1-2.042-5.092h20.695zM104.303.422h5.698v5.124h-5.698V.422zm-7.615 0h5.698v5.124h-5.698V.422zm16.262 0h5.093v23.366h-5.093V.422zm61.165 10.78l.001.003a9.317 9.317 0 0 1 0 13.364 9.7 9.7 0 0 1-14.321-.795h-38.928v-5.097h9.279c.025-.348.05-.621.05-.795 0-2.933-1.488-4.4-4.463-4.4l-.731.05V8.44h.731a9.324 9.324 0 0 1 6.782 2.757 9.025 9.025 0 0 1 2.824 6.682c0 .348-.025.621-.025.795h3.681v-.79a9.4 9.4 0 0 1 5.163-8.4 9.676 9.676 0 0 1 9.939.7l-2.748 4.67a4.043 4.043 0 0 0-2.773-1.043c-2.773 0-4.185 1.367-4.185 4.074.005.267.03.532.076.795h13.285a6.238 6.238 0 0 1-.025-.795 9.344 9.344 0 0 1 2.816-6.7 9.63 9.63 0 0 1 6.815-2.74 9.272 9.272 0 0 1 6.757 2.757zm-6.757 10.805c2.774 0 4.16-1.389 4.16-4.123s-1.362-4.1-4.16-4.1-4.185 1.343-4.185 4.1c0 2.757 1.385 4.123 4.185 4.123zM93.764 29.36h2.622l1.967 5.738h.025l1.886-5.738h2.6v8.346h-1.74v-5.912h-.025l-2.067 5.912h-1.437l-2.067-5.862h-.025v5.862h-1.739V29.36zm18.682-.199c2.622 0 4.16 1.937 4.16 4.421a4 4 0 0 1-4.16 4.322 4.05 4.05 0 0 1-4.16-4.322 4.131 4.131 0 0 1 4.16-4.421zm0 7.2c1.689 0 2.319-1.391 2.319-2.782s-.63-2.881-2.319-2.881-2.294 1.416-2.294 2.881c0 1.465.634 2.782 2.294 2.782zm11.9-7.001h1.916l3.152 8.346h-1.941l-.63-1.863h-3.151l-.681 1.863h-1.892l3.227-8.346zm-.177 5.117h2.193l-1.084-3.055h-.025l-1.084 3.055zm10.136-5.117h3.656c2.168 0 3.832 1.366 3.832 4.123s-1.261 4.223-3.832 4.223h-3.656V29.36zm1.866 6.806h1.634c1.084 0 2.118-.646 2.118-2.509s-.58-2.757-2.446-2.757h-1.311l.005 5.266zm13.36-6.806h1.916l3.152 8.346h-1.916l-.655-1.863h-3.152l-.656 1.863h-1.889l3.2-8.346zm-.177 5.117h2.193l-1.059-3.055h-.025l-1.109 3.055zM160.5 30.9h-2.546v-1.54h6.933v1.54h-2.547v6.806h-1.84V30.9zm11.699 3.552l-3.126-5.092h2.118l1.967 3.3 1.966-3.3h2.068l-3.126 5.142v3.2H172.2l-.001-3.25zM38.007 6.342l-.013-.008.013.009a14.465 14.465 0 0 1 9.244 13.221v.248a9.581 9.581 0 0 1-5.547 8.5c-1.26.571-2.625.876-4.009.894h-.1a9.8 9.8 0 0 1-4.715-1.217 7.657 7.657 0 0 1-.958-.6 5.3 5.3 0 0 1-.58-.472 9.407 9.407 0 0 1-2.5-3.2.025.025 0 0 0-.025-.025l-.151-.323a.344.344 0 0 0-.05-.149l-.076-.174a5.32 5.32 0 0 0 3.605 1.863H33.154a10.3 10.3 0 0 0 8.316-5.12c.12-.19.22-.39.3-.6a9.985 9.985 0 0 0 1.008-4.446 10.22 10.22 0 0 0-.555-3.13c-.123-.323-.249-.671-.4-.994l-.353-.646a.025.025 0 0 0-.025-.025 6.527 6.527 0 0 0-.353-.6c-.025-.025-.025-.025-.025-.05l-.4-.546c-.025 0 .079.127-.05-.05s-.278-.326-.429-.5l-.05-.075-.454-.447-.076-.075-.454-.4-.1-.075-.454-.373-.126-.075-.479-.323-.076-.05.088.034zm-17.623 6.314a10.681 10.681 0 0 0-1.598 1.8 10.612 10.612 0 0 1 2.521-3.08l.298-.246-.001-.002-.3.248v-.003a10.617 10.617 0 0 0-2.546 3.055l-.328.5a15.027 15.027 0 0 1 13.967-9.613h.277a9.741 9.741 0 0 1 8.623 5.49 9.43 9.43 0 0 1-4.671 12.642l-.4.174-.126.05-.227.1a5.139 5.139 0 0 0 1.967-3.949h.025v-.273a9.741 9.741 0 0 0-.958-4.024 10.289 10.289 0 0 0-9.228-5.788h-.151c-1.445.023-2.87.344-4.185.944a16.3 16.3 0 0 0-1.584.891l.001.003-.227.149-.05-.149-.002.001.05.148a14.6 14.6 0 0 0-1.147.932zm2.13 12.108a9.423 9.423 0 0 0 .984 4.119c.2.422.427.832.678 1.227h.025v.05l.227.3.151.224.05.075a10.535 10.535 0 0 0 2.673 2.385c-.53-.2-1.038-.452-1.538-.7l-.807-.422.429.82c3.075 5.515 8.519 9.067 11.219 10.557a26.345 26.345 0 0 1-12.2-5.639 19.935 19.935 0 0 1-6.278-9.812 18 18 0 0 1 1.135-13.165c.622-.892 1.38-1.68 2.245-2.338h.025l.277-.2a9.254 9.254 0 0 1 1.765-1.068 9.981 9.981 0 0 1 3.958-.894h.151a9.719 9.719 0 0 1 8.747 5.458c.048.138.107.272.176.4.025.049.025.099.05.149.029.084.062.167.1.248a5.273 5.273 0 0 0-4.16-1.987h-.227c-1.385.05-2.747.371-4.009.944a10.252 10.252 0 0 0-3.933 3.229c-.23.323-.43.646-.63.994l-.3.546a9.862 9.862 0 0 0-.983 4.5zm-.755-13.192l-.152-.444-.002.002.15.445.004-.003zm-1.375 1.084a9.16 9.16 0 0 1 1.097-1.08v-.001a9.161 9.161 0 0 0-1.097 1.081zm19.3-5.006l.454.447-.454-.447zm-1.677-1.307l.466.314-.466-.314zm2.609 2.326a6.2 6.2 0 0 0-.429-.5c.152.177.303.326.429.5zm.451.595l-.4-.546.4.546zm.381.65c-.1-.2-.227-.4-.353-.6.126.2.252.4.353.6zm.379.667l-.353-.646.353.646zm.403.994zm-2.622-3.997l-.454-.4.454.4zm-.554-.474l-.454-.373.454.373zM25.262 30.652l-.151-.174.151.174zm-.353-.448l-.227-.323.227.323zm7.035 3.9l-.454-.05.454.05zm14.259-9.066l.036-.05.026-.1-.062.15-.342.472.342-.472a14.86 14.86 0 0 1-3.165 4.719 14.653 14.653 0 0 1-10.161 4.3h-.933l-.454-.05h-.2l-.277-.05-.429-.1h-.025a9.7 9.7 0 0 1-5.295-3.229l-.151-.174a2.612 2.612 0 0 1-.2-.273l-.227-.323c-.025 0-.025-.025-.05-.05-.24-.355-.45-.73-.63-1.118v-.05a8.93 8.93 0 0 1-.681-1.888 10.972 10.972 0 0 1-.252-2.037c0-.348.025-.695.05-1.068.08-.683.224-1.356.429-2.012.123-.395.283-.778.479-1.143.077-.19.17-.372.277-.546a9.8 9.8 0 0 1 4.337-3.974l.4-.174.126-.05.176-.075-.037.03.011-.005-.011.005a5.2 5.2 0 0 0-1.871 3.251c-.025.274-.05.547-.05.82 0 .267.026.533.076.795a.318.318 0 0 0 .025.149.906.906 0 0 0 .025.273c0 .074.025.124.025.174.002.085.02.169.05.248a.609.609 0 0 0 .025.2c.012.084.028.166.05.248.025.051.025.124.05.2.025.076.025.15.05.2l.076.248c.025.05.025.124.05.174l.076.248.076.174c.024.073.075.173.1.273l.05.124.176.4a10.256 10.256 0 0 0 9.253 5.812h.126a10.338 10.338 0 0 0 4.21-.969l.656-.323h.025l.605-.373a.025.025 0 0 0 .025-.025l.555-.373.05-.05.529-.422c0-.025.025-.025.05-.05l.479-.447a.05.05 0 0 1 .05-.05l.429-.472.05-.075.4-.5v-.075l.342-.472zM31.288 34.03l-.277-.05.277.05zm13.665-7.402l.429-.472-.429.472zm.479-.544l.4-.5-.4.5zm-1.588 1.512l.529-.422-.529.422zm-.605.423l.555-.373-.555.373zm-.631.397l.605-.373-.605.373zm2.295-1.739l-.479.447.479-.447zM58.895 0a5.306 5.306 0 0 1 5.32 5.266v27.199a5.305 5.305 0 0 1-5.32 5.266H44.272l7.639-5.064h6.984a.225.225 0 0 0 .2-.2v-27.2a.225.225 0 0 0-.2-.2h-6.984L44.272 0h14.623zM5.345 32.664l6.985.001 8.37 5.067H5.345A5.306 5.306 0 0 1 0 32.466v-27.2A5.306 5.306 0 0 1 5.345 0H20.7l-8.371 5.066H5.345a.225.225 0 0 0-.2.2v27.198a.225.225 0 0 0 .2.2zM29.31 15.703l-.165.07.165-.07zm-1.501 6.826c.025.05.025.124.05.174.025.05-.025-.124-.05-.174zm-.227-.894c.025.1.025.174.05.248.025.074-.025-.148-.05-.248zm.101.447c.025.075.025.149.05.2.025.051-.025-.125-.05-.2zm-.222-1.341zm.045.447zm.429 1.763l.076.174-.076-.174zm13.993 5.813l.656-.323-.656.323zm-13.817-5.366l.05.124-.05-.124zm.904-7.576l-.4.174.4-.174z"/>
  </symbol>

  <!-- Logo Colored -->
  <symbol id="logo-colored" viewBox="0 0 133 33">
    <g fill="none" fill-rule="evenodd">
      <path fill="#231F20" d="M70.107 21.845h1.961l1.47 4.269h.019l1.414-4.269h1.942v6.21h-1.3v-4.4h-.019l-1.546 4.4h-1.074l-1.546-4.362h-.021v4.362h-1.3v-6.21zm13.968-.147a3.041 3.041 0 0 1 3.11 3.29 2.982 2.982 0 0 1-3.11 3.216 3.02 3.02 0 0 1-3.11-3.216 3.08 3.08 0 0 1 3.11-3.29zm0 5.359c1.263 0 1.734-1.035 1.734-2.07s-.471-2.144-1.734-2.144-1.716 1.053-1.716 2.144c0 1.091.472 2.07 1.716 2.07zm8.898-5.212h1.433l2.356 6.21H95.31l-.471-1.386h-2.356l-.509 1.386H90.56l2.413-6.21zm-.132 3.807h1.64l-.811-2.273h-.019l-.81 2.273zm7.579-3.807h2.733a2.75 2.75 0 0 1 2.865 3.068c0 2.051-.943 3.142-2.865 3.142h-2.733v-6.21zm1.4 5.064h1.225c.811 0 1.584-.48 1.584-1.867s-.434-2.051-1.829-2.051h-.98v3.918zm9.986-5.064h1.433l2.356 6.21h-1.433l-.49-1.386h-2.36l-.49 1.386h-1.41l2.394-6.21zm-.132 3.807h1.64l-.792-2.273h-.019l-.829 2.273zm8.329-2.661h-1.9v-1.146h5.184v1.146h-1.9v5.064h-1.384v-5.064zm8.75 2.643l-2.338-3.789h1.584l1.47 2.458 1.47-2.458h1.546l-2.337 3.826v2.384h-1.4l.005-2.421z"/>
      <path fill="#2979FF" d="M55.61 24.099h4.26v3.813h-4.26v-3.813zm5.694 0h4.26v3.813h-4.26v-3.813zM78.1 13.898l.002-7.651h4.26v11.44H68.243c.119.383.182.782.189 1.183v2.606H53.2a6.827 6.827 0 0 1-1.565-4.38 6.735 6.735 0 0 1 2.111-4.99 6.555 6.555 0 0 1 5.071-2.07l.547.037v3.789l-.547-.037c-2.225 0-3.337 1.09-3.337 3.271.007.198.026.395.057.591h8.614a6.58 6.58 0 0 1-1.527-3.789H78.1zM77.986.314h4.26v3.813h-4.26V.314zm-5.693 0h4.26v3.813h-4.26V.314zm12.159 0h3.808v17.385h-3.808V.314zm45.735 8.021h-.001a6.909 6.909 0 0 1 0 9.943 7.275 7.275 0 0 1-10.707-.591H90.373v-3.789h6.936c.019-.258.038-.462.038-.591 0-2.18-1.112-3.271-3.337-3.271l-.547.037V6.284h.547a6.989 6.989 0 0 1 5.071 2.051 6.7 6.7 0 0 1 2.111 4.971c0 .258-.019.462-.019.591h2.75v-.591a6.988 6.988 0 0 1 3.861-6.246 7.265 7.265 0 0 1 7.431.517l-2.055 3.474a3.031 3.031 0 0 0-2.074-.776c-2.073 0-3.129 1.017-3.129 3.031.004.198.023.396.057.591h9.934a4.643 4.643 0 0 1-.019-.591 6.935 6.935 0 0 1 2.106-4.984 7.219 7.219 0 0 1 5.1-2.038 6.951 6.951 0 0 1 5.052 2.051zm-5.052 8.039l-.001.001c2.074 0 3.111-1.036 3.111-3.069s-1.018-3.049-3.11-3.049c-2.092 0-3.129.997-3.129 3.049s1.037 3.068 3.129 3.068zM16.268 8.612l-.169.11-.038-.111a6.833 6.833 0 0 0-.829.813 7.959 7.959 0 0 0-1.188 1.331 7.9 7.9 0 0 1 1.885-2.291h-.004a7.908 7.908 0 0 0-1.9 2.273l-.245.37a11.234 11.234 0 0 1 10.444-7.152h.207a7.286 7.286 0 0 1 6.449 4.084 7 7 0 0 1-3.491 9.408l-.3.129-.094.037-.17.074a3.817 3.817 0 0 0 1.47-2.938h.019v-.2a7.219 7.219 0 0 0-.716-2.994 7.7 7.7 0 0 0-6.9-4.308h-.113a7.877 7.877 0 0 0-3.129.7c-.408.2-.805.421-1.188.665zm.566 9.812l-.007.005a6.983 6.983 0 0 0 .735 3.068c.151.312.321.615.509.906h.019v.037l.17.222.113.166.038.055a7.864 7.864 0 0 0 2 1.774c-.396-.147-.773-.332-1.15-.517l-.6-.314.32.61a22.009 22.009 0 0 0 8.389 7.854 19.741 19.741 0 0 1-9.124-4.2 14.824 14.824 0 0 1-4.694-7.3 13.329 13.329 0 0 1 .848-9.795 7.773 7.773 0 0 1 1.68-1.737h.02l.207-.148c.41-.313.852-.58 1.32-.795a7.494 7.494 0 0 1 2.96-.665h.113a7.27 7.27 0 0 1 6.542 4.065c.036.103.08.204.132.3.019.037.019.074.038.111a1.9 1.9 0 0 0 .075.185 3.95 3.95 0 0 0-3.11-1.478h-.17a7.99 7.99 0 0 0-3 .7 7.657 7.657 0 0 0-2.941 2.4c-.171.239-.32.48-.471.739l-.226.407a7.307 7.307 0 0 0-.735 3.345zm-1.601-8.999v.002c.253-.294.53-.566.829-.813l.038.111c-.3.218-.59.452-.867.7zm13.175-4.711l.358.24-.358-.24a10.765 10.765 0 0 1 6.922 9.849v.185a7.127 7.127 0 0 1-4.147 6.32 7.532 7.532 0 0 1-3 .665h-.075a7.352 7.352 0 0 1-3.525-.906 5.729 5.729 0 0 1-1.15-.795 7 7 0 0 1-1.866-2.384.019.019 0 0 0-.019-.018l-.113-.24a.255.255 0 0 0-.038-.111l-.057-.129a3.984 3.984 0 0 0 2.7 1.386h.335l.414.005a7.708 7.708 0 0 0 6.221-3.826c.09-.14.166-.289.226-.444a7.4 7.4 0 0 0 .754-3.308 7.571 7.571 0 0 0-.415-2.329c-.093-.239-.187-.499-.3-.739l-.264-.481a.019.019 0 0 0-.019-.018c-.08-.153-.168-.3-.264-.444-.019-.019-.019-.019-.019-.037l-.3-.407c-.019 0 .056.093-.038-.037s-.207-.241-.32-.37l-.038-.055-.339-.333-.057-.055-.339-.3-.075-.055-.339-.277-.094-.055-.358-.24-.057-.037.053.02zm-9.519 18.091l-.113-.129.113.129zm-.264-.333l-.17-.24.17.24zm5.26 2.903l-.339-.037.339.037zm-1.976-13.688l.015-.006-.015.006a3.865 3.865 0 0 0-1.402 2.419c-.019.203-.038.41-.038.61 0 .198.02.396.057.591a.236.236 0 0 0 .019.111.671.671 0 0 0 .019.2c0 .055.019.092.019.129a.545.545 0 0 0 .038.185c-.002.05.004.1.019.148.009.062.022.124.038.185.019.037.019.092.038.148.019.056.019.111.038.148l.052.18c.019.037.019.092.038.129l.057.185.057.129c.018.052.056.126.075.2l.038.092.132.3a7.694 7.694 0 0 0 3.186 3.364 7.792 7.792 0 0 0 3.733.961h.094a7.761 7.761 0 0 0 3.148-.721l.49-.24h.007l.449-.275-.449.275h.012l.452-.277c.01 0 .018-.008.019-.018l.415-.277.038-.037.4-.314c0-.019.019-.019.038-.037l.358-.333a.037.037 0 0 1 .038-.037l.32-.351.038-.055.3-.37v-.055l.283-.388.025-.081-.049.117.026-.035-.026.035a10.97 10.97 0 0 1-9.961 6.702h-.7l-.339-.037h-.151l-.207-.037-.32-.074h-.019a7.261 7.261 0 0 1-3.959-2.4l-.113-.129a1.948 1.948 0 0 1-.151-.2l-.17-.24c-.019 0-.019-.019-.038-.037a5.971 5.971 0 0 1-.471-.832v-.037a6.622 6.622 0 0 1-.509-1.4 8.123 8.123 0 0 1-.189-1.515c0-.259.019-.518.038-.795.06-.509.166-1.011.32-1.5.092-.294.212-.579.358-.85.058-.141.127-.277.207-.407a7.315 7.315 0 0 1 3.242-2.957l.3-.129.094-.037.132-.055a3.87 3.87 0 0 0-.033.026zm1.485 13.633l-.207-.037.207.037zm10.218-5.507l.32-.351-.32.351zm.357-.407l.3-.37-.3.37zm-1.187 1.126l.4-.314-.4.314zm-.452.315l.415-.277-.415.277zm1.244-.998l-.358.333.358-.333zM44.037 0a3.957 3.957 0 0 1 3.978 3.918v20.237a3.957 3.957 0 0 1-3.978 3.918H33.103l5.712-3.77h5.222a.168.168 0 0 0 .151-.148V3.918a.168.168 0 0 0-.151-.148h-5.222L33.103 0h10.934zM4 24.3h5.218l6.262 3.773H4a3.958 3.958 0 0 1-4-3.918V3.918A3.958 3.958 0 0 1 4 0h11.477L9.218 3.77H4a.168.168 0 0 0-.151.148v20.234c.01.079.072.14.151.148zm17.909-12.613l-.117.049.117-.049zm9.952 9.453l-.003.002.003-.002zm2.687-2.513l-.257.353.257-.353zm-13.755-1.864c.019.037.057.166.038.129-.019-.037-.019-.092-.038-.129zm-.17-.666c.019.074.057.241.038.185-.019-.056-.019-.111-.038-.185zm.075.333c.019.055.057.185.038.148-.019-.037-.019-.093-.038-.148zm-.169-.998zm.038.332zm.32 1.312l.057.129-.057-.129zm10.463 4.326l.49-.24-.49.24zm-10.331-3.993l.038.092-.038-.092zm.677-5.635l-.3.129.3-.129z"/>
    </g>
  </symbol>

  <!-- Arrow Next Icon -->
  <symbol id="icon-arrow-next" viewBox="0 0 31 51">
    <path d="M24.73 25.325L.403 2.952 3.111.008l27.517 25.307L3.159 50.748.441 47.812z"/>
  </symbol>

  <!-- Arrow Previous Icon -->
  <symbol id="icon-arrow-prev" viewBox="0 0 31 51">
    <path d="M30.225 47.798l-2.708 2.944L0 25.431 27.474-.001l2.718 2.936L5.898 25.421z"/>
  </symbol>

  <!-- Scroll Arrow Icon -->
  <symbol id="icon-arrow-scroll" viewBox="0 0 12 17">
    <path fill-rule="evenodd" d="M11.57 11.25a.592.592 0 0 0-.833-.842l-4.27 4.269V.589a.587.587 0 0 0-.59-.59.593.593 0 0 0-.6.59v14.088l-4.26-4.27a.6.6 0 0 0-1.019.422c0 .158.064.31.177.42l5.28 5.28a.58.58 0 0 0 .833 0l5.282-5.28z"/>
  </symbol>

  <!-- Camera Icon -->
  <symbol id="icon-camera" viewBox="0 0 24 18">
    <path fill-rule="evenodd" d="M12 13.2a3.2 3.2 0 1 1 0-6.4 3.2 3.2 0 0 1 0 6.4zM8.4 0h7.2l2.2 2h3.8A2.234 2.234 0 0 1 24 4v12a2.234 2.234 0 0 1-2.4 2H2.4A2.234 2.234 0 0 1 0 16V4a2.234 2.234 0 0 1 2.4-2h3.8l2.2-2zM12 15c3.312 0 6-2.24 6-5s-2.688-5-6-5-6 2.24-6 5 2.688 5 6 5z"/>
  </symbol>

  <!-- Cart Icon -->
  <symbol id="icon-cart" viewBox="0 0 27 27">
    <path d="M8.009 21.356a2.67 2.67 0 1 0 0 5.34 2.67 2.67 0 0 0 0-5.34zM0 0v2.67h2.67L7.475 12.8l-1.8 3.27c-.22.39-.336.832-.334 1.281a2.677 2.677 0 0 0 2.67 2.67h16.015v-2.67H8.569a.33.33 0 0 1-.334-.334l.04-.16 1.2-2.176h9.944a2.657 2.657 0 0 0 2.336-1.375l4.778-8.663A1.3 1.3 0 0 0 26.7 4a1.339 1.339 0 0 0-1.339-1.33H5.619L4.365 0H0zm21.356 21.356a2.67 2.67 0 1 0 0 5.34 2.67 2.67 0 0 0 0-5.34z"/>
  </symbol>

  <!-- Category Icon -->
  <symbol id="icon-category" viewBox="0 0 15 16">
    <path fill-rule="evenodd" d="M7.231.538l4.23 6.923H3L7.231.538zm4.23 15.384a3.461 3.461 0 1 1 0-6.922 3.461 3.461 0 0 1 0 6.922zM.308 9.384h6.154v6.154H.308V9.384z"/>
  </symbol>

  <!-- Check List Icon -->
  <symbol id="icon-check-list" viewBox="0 0 15 14">
    <path fill-rule="evenodd" d="M14.398.813a.589.589 0 0 1-.004.83L7.379 8.658a.589.589 0 0 1-.832 0L4.634 6.745a.589.589 0 0 1 .832-.832l1.5 1.5 6.6-6.6c.23-.23.602-.23.832 0zm-1.054 4.975a.589.589 0 0 1 .591.591v.593A6.966 6.966 0 1 1 9.8.603a.589.589 0 1 1-.481 1.075 5.789 5.789 0 1 0 3.436 5.292v-.593a.589.589 0 0 1 .589-.589z"/>
  </symbol>

  <!-- Check Select Icon  -->
  <symbol id="icon-check-select" viewBox="0 0 32 32">
    <path d="M12.552 23.535L4.707 15.69l2.2-2.2 5.648 5.648L24.477 7.217l2.2 2.2-14.125 14.118zM15.69 0C7.025 0 0 7.025 0 15.69s7.025 15.69 15.69 15.69 15.69-7.025 15.69-15.69C31.355 7.035 24.345.025 15.69 0z"/>
  </symbol>

  <!-- Close Light Icon -->
  <symbol id="icon-close-light" viewBox="0 0 14 14">
    <path fill-rule="evenodd" d="M14 1.4L12.6 0 7 5.6 1.4 0 0 1.4 5.6 7 0 12.6 1.4 14 7 8.4l5.6 5.6 1.4-1.4L8.4 7z"/>
  </symbol>

  <!-- Collapse Icon -->
  <symbol id="icon-collapse" viewBox="0 0 13 8">
    <path d="M6.239 2.043L1.406 6.866a.824.824 0 0 1-1.155.012.825.825 0 0 1-.258-.604.821.821 0 0 1 .246-.57L5.65.29a.824.824 0 0 1 1.168 0l5.375 5.378a.825.825 0 0 1-.329 1.442c-.305.073-.625-.033-.796-.24L6.24 2.043zM6.358.997a.176.176 0 0 1-.25 0l.126.125.124-.125z"/>
  </symbol>

  <!-- Dashboard Icon -->
  <symbol id="icon-dashboard" viewBox="0 0 13 13">
    <path d="M0 7.141h5.5V0H0v7.141zm0 5.713h5.5V8.57H0v4.284zm6.878 0h5.5V5.713h-5.5v7.141zM6.878 0v4.285h5.5V0h-5.5z"/>
  </symbol>

  <!-- Expand Icon -->
  <symbol id="icon-expand" viewBox="0 0 9 6">
    <path d="M7.827.001l1.06 1.06-4.444 4.444L.001 1.061l1.06-1.06 3.382 3.382z"/>
  </symbol>

  <!-- Facebook Icon -->
  <symbol id="icon-facebook" viewBox="0 0 23 23">
    <path fill-rule="evenodd" d="M19.098 0H2.975A2.975 2.975 0 0 0-.002 2.975V19.1a2.975 2.975 0 0 0 2.975 2.975h7.955l.014-7.889h-2.05a.484.484 0 0 1-.484-.482l-.01-2.541a.484.484 0 0 1 .484-.485h2.046V8.22c0-2.851 1.741-4.4 4.285-4.4h2.085c.267 0 .484.217.484.484v2.14a.484.484 0 0 1-.483.484H16.02c-1.383 0-1.651.657-1.651 1.622v2.127h3.04a.484.484 0 0 1 .48.541l-.3 2.543a.484.484 0 0 1-.48.427h-2.726l-.014 7.889h4.729a2.975 2.975 0 0 0 2.978-2.977V2.975A2.975 2.975 0 0 0 19.098 0z"/>
  </symbol>

  <!-- Gear Icon -->
  <symbol id="icon-gear" viewBox="0 0 16 16">
    <path d="M13.727 8.78c.032-.259.049-.52.05-.78 0-.261-.02-.522-.06-.78l1.69-1.32a.413.413 0 0 0 .1-.51l-1.6-2.77a.407.407 0 0 0-.49-.18l-1.99.8a5.859 5.859 0 0 0-1.35-.78l-.3-2.12a.4.4 0 0 0-.4-.34h-3.2a.389.389 0 0 0-.39.34l-.3 2.12c-.482.2-.936.463-1.35.78l-1.99-.8a.4.4 0 0 0-.49.18l-1.6 2.77c-.102.17-.06.39.1.51l1.69 1.32a4.713 4.713 0 0 0-.01 1.56L.147 10.1a.413.413 0 0 0-.1.51l1.6 2.77c.098.17.305.246.49.18l1.99-.8c.413.319.867.581 1.35.78l.3 2.12c.033.196.202.34.4.34h3.2a.382.382 0 0 0 .39-.34l.3-2.12c.482-.2.936-.463 1.35-.78l1.99.8a.4.4 0 0 0 .49-.18l1.6-2.77a.388.388 0 0 0-.1-.51l-1.67-1.32zM7.777 11a3 3 0 1 1 3-3 3.009 3.009 0 0 1-3 3z"/>
  </symbol>

  <!-- Google Icon -->
  <symbol id="icon-google" viewBox="0 0 22 22">
    <g fill="none" fill-rule="evenodd">
      <path fill="#FBBB00" d="M4.869 13.277L4.1 16.132l-2.8.059a11 11 0 0 1-.081-10.258l2.489.456 1.09 2.474a6.556 6.556 0 0 0 .062 4.414h.009z"/>
      <path fill="#518EF8" d="M21.779 8.933a10.981 10.981 0 0 1-3.916 10.619l-3.135-.16-.444-2.769a6.547 6.547 0 0 0 2.817-3.343h-5.874V8.934h10.552v-.001z"/>
      <path fill="#28B446" d="M17.862 19.551A10.989 10.989 0 0 1 1.308 16.19l3.56-2.914a6.534 6.534 0 0 0 9.415 3.345l3.579 2.93z"/>
      <path fill="#F14336" d="M17.997 2.529l-3.559 2.914a6.533 6.533 0 0 0-9.634 3.42l-3.579-2.93a10.988 10.988 0 0 1 16.769-3.4l.003-.004z"/>
    </g>
  </symbol>

  <!-- Hamburger Icon -->
  <symbol id="icon-hamburger" viewBox="0 0 18 12">
    <path d="M0 12h18v-2H0v2zm0-5h18V5H0v2zm0-7v2h18V0H0z"/>
  </symbol>

  <!-- Instagram Icon -->
  <symbol id="icon-instagram" viewBox="0 0 16 16">
    <path d="M10.962 0a4.183 4.183 0 0 1 4.178 4.178v6.784a4.183 4.183 0 0 1-4.178 4.178H4.178A4.183 4.183 0 0 1 0 10.962V4.178A4.183 4.183 0 0 1 4.178 0h6.784zM13.8 10.962V4.178a2.838 2.838 0 0 0-2.838-2.835H4.178a2.838 2.838 0 0 0-2.835 2.835v6.787A2.838 2.838 0 0 0 4.178 13.8h6.785a2.838 2.838 0 0 0 2.837-2.838zM7.57 3.669a3.9 3.9 0 1 1 0 7.8 3.9 3.9 0 0 1 0-7.8zm0 6.459a2.558 2.558 0 1 0 0-5.116 2.558 2.558 0 0 0 0 5.116zm4.065-7.598a.985.985 0 1 1 0 0z"/>
  </symbol>

  <!-- Language Icon -->
  <symbol id="icon-language" viewBox="0 0 20 20">
    <path d="M9.99 0C4.468.006-.004 4.485 0 10.007.004 15.528 4.482 20.002 10.003 20 15.525 19.998 20 15.522 20 10A10 10 0 0 0 9.99 0zm6.93 6h-2.95a15.649 15.649 0 0 0-1.38-3.56A8.03 8.03 0 0 1 16.92 6zM10 2.04A14.087 14.087 0 0 1 11.91 6H8.09A14.087 14.087 0 0 1 10 2.04zM2.26 12a7.822 7.822 0 0 1 0-4h3.38a16.515 16.515 0 0 0-.14 2c.006.669.053 1.337.14 2H2.26zm.82 2h2.95a15.649 15.649 0 0 0 1.38 3.56A7.987 7.987 0 0 1 3.08 14zm2.95-8H3.08a7.987 7.987 0 0 1 4.33-3.56A15.649 15.649 0 0 0 6.03 6zM10 17.96A14.087 14.087 0 0 1 8.09 14h3.82A14.087 14.087 0 0 1 10 17.96zM12.34 12H7.66a14.713 14.713 0 0 1-.16-2c.007-.67.06-1.338.16-2h4.68c.1.662.153 1.33.16 2-.008.67-.061 1.338-.16 2zm.25 5.56A15.649 15.649 0 0 0 13.97 14h2.95a8.03 8.03 0 0 1-4.33 3.56zM14.36 12c.087-.663.134-1.331.14-2a16.515 16.515 0 0 0-.14-2h3.38a7.822 7.822 0 0 1 0 4h-3.38z"/>
  </symbol>

  <!-- List Icon -->
  <symbol id="icon-list" viewBox="0 0 14 11">
    <path d="M2.538 1.231a1.25 1.25 0 0 1-1.269 1.231 1.232 1.232 0 1 1 0-2.462 1.25 1.25 0 0 1 1.269 1.231zM1.269 4.1a1.232 1.232 0 1 0 0 2.462 1.232 1.232 0 1 0 0-2.462zm0 4.1a1.232 1.232 0 1 0 0 2.462 1.232 1.232 0 1 0 0-2.462zm2.538-6.052h9.306c.23.003.42-.18.423-.41V.718a.417.417 0 0 0-.423-.41H3.807a.417.417 0 0 0-.423.41v1.026c.004.23.193.413.423.41v-.006zm0 4.1h9.306c.23.003.42-.18.423-.41V4.821a.417.417 0 0 0-.423-.41H3.807a.417.417 0 0 0-.423.41v1.026c.004.23.193.413.423.41v-.009zm0 4.1h9.306c.23.003.42-.18.423-.41V8.924a.417.417 0 0 0-.423-.41H3.807a.417.417 0 0 0-.423.41V9.95c.004.23.193.413.423.41v-.012z"/>
  </symbol>

  <!-- Location Icon -->
  <symbol id="icon-location" viewBox="0 0 10 14">
    <path d="M4.666 0A4.663 4.663 0 0 0 0 4.666c0 3.5 4.666 8.665 4.666 8.665s4.666-5.166 4.666-8.665A4.663 4.663 0 0 0 4.666 0zm0 6.332a1.666 1.666 0 1 1 0-3.332 1.666 1.666 0 0 1 0 3.332z"/>
  </symbol>

  <!-- Login Icon -->
  <symbol id="icon-login" viewBox="0 0 20 18">
    <path fill-rule="evenodd" d="M13.782 8.365c.349.464.35 1.102.004 1.568l-6.275 7.743c-.56.691-1.531.207-1.531-.784v-4.424H.9a1.015 1.015 0 0 1-.9-1.106V6.937a1.015 1.015 0 0 1 .9-1.106h5.076V1.406c0-.991.971-1.475 1.531-.784l6.275 7.743zM16.391 0C18.383 0 20 1.983 20 4.425v8.85c0 2.443-1.617 4.425-3.609 4.425h-3.159a.512.512 0 0 1-.451-.553V15.3a.512.512 0 0 1 .451-.55h3.159a1.359 1.359 0 0 0 1.2-1.475V4.428a1.359 1.359 0 0 0-1.2-1.475h-3.159a.512.512 0 0 1-.451-.553V.553A.512.512 0 0 1 13.232 0h3.159z"/>
  </symbol>

  <!-- Logout Icon -->
  <symbol id="icon-logout" viewBox="0 0 17 14">
    <path fill-rule="evenodd" d="M16.68 6.116a.809.809 0 0 1 0 1.137l-5.615 5.615a.8.8 0 0 1-1.37-.568V9.087H5.147a.8.8 0 0 1-.8-.8V5.078a.8.8 0 0 1 .8-.8h4.548V1.069a.8.8 0 0 1 1.37-.568l5.615 5.615zM3.208-.001h2.809a.4.4 0 0 1 .4.4v1.335a.4.4 0 0 1-.4.4H3.208a1.068 1.068 0 0 0-1.07 1.07v6.421a1.068 1.068 0 0 0 1.07 1.07h2.809c.22 0 .4.18.4.4v1.339a.4.4 0 0 1-.4.4H3.208A3.21 3.21 0 0 1 0 9.625V3.208A3.21 3.21 0 0 1 3.208-.001z"/>
  </symbol>

  <!-- Message Icon -->
  <symbol id="icon-message" viewBox="0 0 13 13">
    <path fill-rule="evenodd" d="M11.058 0H1.58C.707.002 0 .71 0 1.584v7.13A1.584 1.584 0 0 0 1.58 10.3h2.37v2.079a.3.3 0 0 0 .471.24L7.5 10.3h3.554a1.584 1.584 0 0 0 1.58-1.584V1.584c0-.872-.704-1.58-1.576-1.584z"/>
  </symbol>

  <!-- Plus Icon -->
  <symbol id="icon-plus" viewBox="0 0 17 17">
    <path fill-rule="evenodd" d="M15.006 6.349H9.811V1.154A1.154 1.154 0 0 0 8.657 0H7.5c-.637 0-1.154.517-1.154 1.154v5.194H1.154C.517 6.348.001 6.863 0 7.5v1.154c0 .637.517 1.154 1.154 1.154h5.195v5.194A1.154 1.154 0 0 0 7.5 16.16h1.157c.637 0 1.154-.517 1.154-1.154V9.811h5.194a1.154 1.154 0 0 0 1.154-1.154V7.5a1.154 1.154 0 0 0-1.153-1.151z"/>
  </symbol>

  <!-- Profile Icon -->
  <symbol id="icon-profile" viewBox="0 0 16 16">
    <path d="M7.812 0A7.814 7.814 0 0 0 0 7.812a7.814 7.814 0 0 0 7.812 7.812 7.814 7.814 0 0 0 7.812-7.812A7.814 7.814 0 0 0 7.812 0zm0 2.343a2.34 2.34 0 0 1 2.343 2.343 2.34 2.34 0 0 1-2.343 2.343 2.34 2.34 0 0 1-2.343-2.343 2.34 2.34 0 0 1 2.343-2.343zm0 11.093a5.625 5.625 0 0 1-4.687-2.515c.023-1.555 3.125-2.406 4.687-2.406 1.562 0 4.664.851 4.687 2.406a5.625 5.625 0 0 1-4.687 2.515z"/>
  </symbol>

  <!-- Profile Cog Icon -->
  <symbol id="icon-profile-cog" viewBox="0 0 18 15">
    <path d="M16.379 10.359c.07-.39.07-.791 0-1.182l.692-.413a.2.2 0 0 0 .089-.236 4.2 4.2 0 0 0-.891-1.593.191.191 0 0 0-.241-.039l-.692.413a3.126 3.126 0 0 0-.99-.591v-.827a.2.2 0 0 0-.153-.2 3.917 3.917 0 0 0-1.776 0 .2.2 0 0 0-.153.2v.827c-.364.134-.7.334-.99.591l-.693-.409a.192.192 0 0 0-.241.039 4.2 4.2 0 0 0-.891 1.593c-.027.09.01.186.089.236l.692.413c-.07.39-.07.791 0 1.182l-.692.413a.2.2 0 0 0-.089.236c.178.588.482 1.13.891 1.588.06.07.162.086.241.039l.692-.413c.29.257.626.457.99.591v.827a.2.2 0 0 0 .153.2 3.917 3.917 0 0 0 1.776 0 .2.2 0 0 0 .153-.2v-.827c.364-.134.7-.334.99-.591l.692.413c.08.046.18.03.241-.039a4.2 4.2 0 0 0 .891-1.593.208.208 0 0 0-.089-.236l-.691-.412zm-3.072.755a1.347 1.347 0 1 1 1.3-1.346c.012.73-.57 1.332-1.3 1.346zM6.01 7.1a3.494 3.494 0 0 0 3.434-3.548A3.494 3.494 0 0 0 6.01 0a3.494 3.494 0 0 0-3.434 3.552A3.494 3.494 0 0 0 6.01 7.1zm5.4 6.285c-.062-.033-.123-.072-.182-.108l-.212.128a1.027 1.027 0 0 1-1.3-.2 5.1 5.1 0 0 1-1.079-1.931 1.1 1.1 0 0 1 .48-1.268l.212-.128v-.216l-.212-.128a1.1 1.1 0 0 1-.48-1.268c.024-.08.059-.161.086-.241-.1-.008-.2-.033-.306-.033h-.451a4.53 4.53 0 0 1-3.912 0h-.448A3.67 3.67 0 0 0 0 11.722v1.154a1.311 1.311 0 0 0 1.288 1.332h9.444c.262 0 .517-.083.73-.236a1.114 1.114 0 0 1-.054-.327l.002-.26z"/>
  </symbol>

  <!-- Search Icon -->
  <symbol id="icon-search" viewBox="0 0 13 13">
    <path d="M8.689 7.647H8.14l-.195-.188a4.525 4.525 0 1 0-.487.487l.188.195v.549l3.476 3.469 1.036-1.036-3.469-3.476zm-4.171 0a3.128 3.128 0 1 1 0-6.256 3.128 3.128 0 0 1 0 6.256z"/>
  </symbol>

  <!-- Sign Up Icon -->
  <symbol id="icon-sign-up" viewBox="0 0 20 18">
    <path d="M12.727 9c2.009 0 3.636-2.014 3.636-4.5S14.736 0 12.727 0c-2.009 0-3.636 2.014-3.636 4.5S10.718 9 12.727 9zM4.545 6.75V3.375H2.727V6.75H0V9h2.727v3.375h1.818V9h2.728V6.75H4.545zm8.182 4.5c-2.427 0-7.273 1.507-7.273 4.5V18H20v-2.25c0-2.993-4.845-4.5-7.273-4.5z"/>
  </symbol>

  <!-- Star Icon -->
  <symbol id="icon-star" viewBox="0 0 18 17">
    <path fill-rule="evenodd" d="M9.62.526l1.98 4.01a.944.944 0 0 0 .711.517l4.425.643a.945.945 0 0 1 .524 1.611l-3.2 3.121a.945.945 0 0 0-.272.836l.756 4.407a.945.945 0 0 1-1.371 1l-3.961-2.084a.946.946 0 0 0-.879 0l-3.958 2.08a.945.945 0 0 1-1.371-1l.756-4.407a.945.945 0 0 0-.272-.836L.287 7.307a.945.945 0 0 1 .524-1.611l4.424-.643a.944.944 0 0 0 .711-.517L7.925.526a.944.944 0 0 1 1.695 0z"/>
  </symbol>

  <!-- Triple Dots -->
  <symbol id="icon-triple-dots" viewBox="0 0 4 16">
    <path d="M2 10a2 2 0 1 1 0-4 2 2 0 0 1 0 4zm0-6a2 2 0 1 1 0-4 2 2 0 0 1 0 4zm0 12a2 2 0 1 1 0-4 2 2 0 0 1 0 4z"/>
  </symbol>

  <!-- Twitter Icon -->
  <symbol id="icon-twitter" viewBox="0 0 16 11">
    <path fill-rule="evenodd" d="M12.19 1.64a2.356 2.356 0 0 0-2.052-.7c.438-.04.857-.201 1.207-.468 0-.117 0-.234-.121-.234a2.329 2.329 0 0 0-.966.234c.362-.234.483-.351.483-.468A2.28 2.28 0 0 0 9.534.59c.121-.234.241-.351.121-.468a.929.929 0 0 0-.483.468c-.314.249-.562.57-.724.937-.46.731-.825 1.518-1.086 2.342h-.121c-.275-.4-.65-.723-1.086-.937a12.431 12.431 0 0 0-1.81-.937 13.3 13.3 0 0 0-2.293-.937 2.164 2.164 0 0 0 1.207 1.991 2.112 2.112 0 0 0-.845.117c0 .7.6 1.288 1.69 1.523-.389.008-.766.13-1.086.351a1.873 1.873 0 0 0 1.931.937c-.11.093-.232.171-.362.234a.5.5 0 0 0-.121.586c.241.351.483.468 1.086.468A3.993 3.993 0 0 1 0 7.382a7.967 7.967 0 0 0 3.5 2.694 8.917 8.917 0 0 0 4.948.117 8.63 8.63 0 0 0 4.1-2.694 5.493 5.493 0 0 0 .966-2.108 2.149 2.149 0 0 0 1.81-.7 2.926 2.926 0 0 1-1.69-.117c.845-.117 1.448-.351 1.569-.82a2.42 2.42 0 0 1-1.81 0A3.19 3.19 0 0 0 12.19 1.64z"/>
  </symbol>

  <!-- YouTube Icon -->
  <symbol id="icon-youtube" viewBox="0 0 12 14">
    <path d="M9.324 9.676H8.6v-.422c0-.188.154-.341.342-.341h.046c.189 0 .342.152.343.341l-.007.422zm-2.723-.9a.31.31 0 0 0-.335.275V11.1a.342.342 0 0 0 .671 0V9.048a.311.311 0 0 0-.337-.276l.001.004zm4.422-1.147v3.9a1.76 1.76 0 0 1-1.8 1.7H1.8a1.76 1.76 0 0 1-1.8-1.7v-3.9a1.76 1.76 0 0 1 1.8-1.7h7.42a1.76 1.76 0 0 1 1.804 1.696l-.001.004zM2.3 11.95V7.841h.919v-.609H.768v.6h.765v4.118H2.3zm2.756-3.5h-.767v2.195a3.89 3.89 0 0 1 0 .532c-.062.17-.342.351-.452.018a4.368 4.368 0 0 1 0-.535V8.45h-.762v2.175c0 .333-.007.582 0 .7.019.2.012.432.2.565a.926.926 0 0 0 1.165-.39v.453h.616V8.45zm2.452 2.513V9.136c0-.7-.521-1.113-1.228-.55V7.228h-.766v4.687l.63-.009.057-.292c.799.743 1.307.237 1.305-.648l.002-.003zm2.4-.242h-.575v.399a.314.314 0 0 1-.314.311H8.9a.314.314 0 0 1-.314-.311v-.844H9.9v-.5a7.815 7.815 0 0 0-.039-.931c-.094-.655-1.013-.759-1.477-.423a.865.865 0 0 0-.322.433c-.074.25-.108.511-.1.772v1.089c.006 1.821 2.206 1.565 1.943.008l.003-.003zm-2.951-5.91a.522.522 0 0 0 .184.233.534.534 0 0 0 .314.087.488.488 0 0 0 .294-.091.7.7 0 0 0 .215-.275l-.015.3H8.8V1.432h-.673V4.26a.28.28 0 1 1-.56 0V1.432h-.7v2.45c0 .312.006.52.015.626.01.104.035.206.075.303zM4.368 2.759c-.008-.275.02-.55.087-.818a.875.875 0 0 1 .893-.65c.176-.005.35.035.508.115a.847.847 0 0 1 .328.3c.074.116.128.244.158.378.034.196.048.396.043.595V3.6c.005.248-.008.496-.04.742a1.177 1.177 0 0 1-.168.442.8.8 0 0 1-.329.3 1.049 1.049 0 0 1-.464.1 1.287 1.287 0 0 1-.494-.083.678.678 0 0 1-.315-.252 1.118 1.118 0 0 1-.161-.407 3.926 3.926 0 0 1-.047-.716v-.967h.001zM5.037 4.2a.341.341 0 1 0 .679 0V2.268a.341.341 0 1 0-.679 0V4.2zm-2.365.977h.806V2.392L4.432 0H3.55l-.506 1.773L2.53 0h-.872l1.013 2.393.001 2.784z"/>
  </symbol>

</svg>
